<svg xmlns="http://www.w3.org/2000/svg" xml:space="preserve" width="450.50684" height="120.05686" viewBox="0 0 450.50684 120.05687"><path d="M12.776 52.436h12.688l-12.77 60.669H0l12.776-60.67M115.63 94.302c0 8.26 4.433 10.97 12.43 10.97 4.784 0 10.052-1.876 14.396-3.882l-2.137 10.21c-4.524 1.393-9.478 2.52-14.254 2.52-12.866 0-21.56-6.258-21.56-19.558 0-13.905 10.779-27.286 25.467-27.286 11.041 0 18.344 5.646 18.344 17.032 0 3.39-.439 6.692-1.13 9.994zm21.298-7.994c.17-1.042.26-2 .26-3.042 0-4.786-2.521-7.48-7.388-7.48-7.216 0-10.347 4.342-12.604 10.522h19.732M256.885 94.302c0 8.26 4.432 10.97 12.43 10.97 4.784 0 10.052-1.876 14.396-3.882l-2.138 10.21c-4.524 1.393-9.477 2.52-14.253 2.52-12.867 0-21.56-6.258-21.56-19.558 0-13.905 10.779-27.286 25.467-27.286 11.041 0 18.344 5.646 18.344 17.032 0 3.39-.439 6.692-1.131 9.994zm21.298-7.994c.169-1.042.26-2 .26-3.042 0-4.786-2.522-7.48-7.388-7.48-7.216 0-10.347 4.342-12.604 10.522h19.732M199.603 77.628h-9.042l1.828-8.523h9.036c2.352-11.383 5.327-17.824 18.883-17.824 2.699 0 5.305.519 7.21 1.13l-1.929 9.095c-1.684-.93-3.106-1.182-4.325-1.182-6.432 0-7.063 4.088-8.187 8.78h10.402l-1.795 8.524h-10.432l-7.45 35.477h-11.653l7.454-35.477M234.103 52.436h11.649l-12.776 60.669h-11.648l12.775-60.67M31.347 68.34h11.658l-.784 3.722s4.376-4.468 12.547-4.765c8.776-.32 14.821 5.472 14.6 14.341-.07 2.836-.972 6.914-1.579 9.692l-4.585 21.775h-11.65l4.447-21.12c.61-3.047 1.16-4.696 1.16-7.995 0-3.74-2.564-6.401-6.301-6.401-8.09 0-11.041 6.307-12.521 13l-4.779 22.516H21.912l9.435-44.765M161.11 68.34h11.647l-1.298 6.17s3.774-6.17 12.209-7.213c1.464-.177 3.047.084 4.44.435l-2.443 11.388c-1.289-.438-2.956-.698-4.42-.698-8.265 0-12.254 7.39-13.733 14.604l-4.18 20.079h-11.637l9.416-44.765M74.935 68.376h8.278l1.508-7.17 12.083-2.05-1.941 9.22h10.585l-1.823 8.522H93.068l-4.136 19.558c-.268 1.354-.528 2.604-.528 4.34 0 2.698 1.823 4.345 4.44 4.345 2.09 0 4.073-.43 5.557-1.036l-1.904 9.036c-2.005.437-4.27 1.041-6.27 1.041-7.896 0-13.468-3.13-13.468-11.737 0-3.47.702-6.861 1.476-10.424l3.184-15.123h-8.302l1.818-8.522M314.761 83.729l12.6-15.39h13.906l-19.042 21.38 10.687 23.386H320.22l-6.844-17.125-13.405 17.125h-13.907l20.255-23.387-9.467-21.378h12.084l5.825 15.389" style="fill:#231f20;fill-opacity:1;fill-rule:nonzero;stroke:none;stroke-width:.133333"/><path d="M319.037 14.024s19.724 24.872 62.574 37.062c0 0-30.282-9.992-48.011-46.872l-14.563 9.81" style="fill:#4dbd38;fill-opacity:1;fill-rule:nonzero;stroke:none;stroke-width:.133333"/><path d="M419.067.02A32.644 32.644 0 0 0 404.43 4.11a6.153 6.153 0 0 0-.352.193c-19.192 10.962-32.044 36.51-30.734 58.88 1.588 27.415 20.14 50.703 42.407 56.875-16.75-10.328-28.95-32.117-30.735-57.801-1.828-26.462 8.463-49.91 19.335-56.76 9.628-6.054 26.676-3.47 32.545 8.177 7.052 13.984 3.14 30.55-10.696 39.419-6.83 4.374-15.716 5.193-23.028 3.33 4.391 2.172 10.276 3.227 15.646 3.039 17.018-.588 31.614-15.307 31.688-31.719.06-16.408-14.428-28.31-31.44-27.721" style="fill:#4dbd38;fill-opacity:1;fill-rule:nonzero;stroke:none;stroke-width:.133333"/></svg>