<svg xmlns="http://www.w3.org/2000/svg" xml:space="preserve" width="1000px" height="394px" x="0px" y="0px" viewBox="0 0 1000 394"><path fill="#5A5757" d="M904.528 172.247h38.602l-9.061 51.372c6.212-5.391 12.125-9.25 17.727-11.582 5.606-2.317 11.951-3.486 19.043-3.486 10.509 0 18.237 3.201 23.155 9.609 4.928 6.396 6.212 16.21 3.879 29.451l-11.313 64.141h-38.981l9.804-55.586c1.116-6.339.743-10.824-1.126-13.462s-4.918-3.954-9.146-3.954c-4.67 0-8.755 1.779-12.288 5.328-3.527 3.559-6.113 9.94-7.729 19.133l-8.556 48.541h-38.602l24.592-139.505z"/><path fill="#E51A92" d="M342.35 125.688h39.829c-6.45 11.961-15.315 21.02-26.566 27.164-11.262 6.157-24.608 9.227-40.045 9.227-21.664 0-37.422-6.234-47.294-18.714-3.917-5.17-6.575-11.024-7.976-17.574-1.396-6.558-1.453-13.441-.174-20.688 1.532-8.679 4.507-16.679 8.935-23.989a70.977 70.977 0 0 1 16.631-18.919c6.655-5.315 14.221-9.411 22.702-12.307 8.477-2.901 17.295-4.341 26.467-4.341 10.003 0 18.731 1.537 26.192 4.594 7.46 3.056 13.404 7.434 17.863 13.112 4.443 5.691 7.397 12.593 8.866 20.717 1.458 8.131 1.273 17.393-.559 27.793h-87.928c-1.253 8.247-.216 14.481 3.111 18.68 3.328 4.193 8.998 6.291 16.995 6.291 4.896 0 9.071-.813 12.53-2.421 3.461-1.624 6.93-4.499 10.421-8.625m-39.107-33.983h46.13c.774-6.702-.548-11.848-3.954-15.428-3.396-3.585-8.545-5.386-15.437-5.386-13.319 0-22.222 6.944-26.739 20.814M476.145 45.543c11.904 0 22.123 2.454 30.668 7.345 8.535 4.894 14.626 11.807 18.279 20.733 3.66 8.924 4.491 19.08 2.49 30.444a67.024 67.024 0 0 1-8.602 23.015c-4.297 7.139-9.777 13.338-16.453 18.611-6.682 5.273-14.121 9.332-22.281 12.151-8.171 2.819-16.736 4.238-25.687 4.238-12.325 0-22.86-2.453-31.6-7.336-8.745-4.901-14.994-11.764-18.732-20.58-3.743-8.824-4.628-18.851-2.648-30.099 1.511-8.545 4.476-16.463 8.897-23.773 4.417-7.318 9.93-13.544 16.511-18.719 6.592-5.17 14.057-9.132 22.396-11.894 8.335-2.754 17.259-4.136 26.762-4.136m-6.608 30.429c-4.333 0-8.034.997-11.135 2.998-3.096 2-5.691 5.115-7.771 9.348-2.08 4.233-3.67 9.445-4.765 15.639-3.223 18.322 1.469 27.475 14.094 27.475 12.352 0 20.138-9.153 23.37-27.475 1.543-8.737 1.475-15.181-.2-19.311-.947-2.754-2.674-4.884-5.144-6.397-2.483-1.512-5.3-2.277-8.449-2.277"/><path fill="#5A5757" d="m616.826 169.593-6.807 38.61h21.406l-4.99 28.282h-21.402l-6.286 35.658c-.758 4.291-.853 7.129-.258 8.514.9 2.148 2.959 3.223 6.154 3.223 2.886 0 7.044-.832 12.521-2.465l-1.849 26.824c-10.014 2.102-19.19 3.154-27.551 3.154-9.698 0-16.626-1.232-20.786-3.696-4.153-2.474-6.891-6.233-8.202-11.256-1.311-5.028-.968-13.184 1.021-24.45l6.249-35.506h-14.141l4.996-28.282h14.137l3.285-18.635 42.503-19.975zM710.525 275.36h39.401c-6.397 11.847-15.152 20.807-26.292 26.894-11.136 6.091-24.34 9.14-39.619 9.14-21.428 0-37.021-6.17-46.771-18.537-3.87-5.112-6.508-10.925-7.882-17.411-1.38-6.481-1.438-13.31-.174-20.48 1.517-8.603 4.464-16.521 8.845-23.766 4.381-7.233 9.866-13.478 16.458-18.731 6.587-5.255 14.078-9.324 22.465-12.193 8.371-2.864 17.105-4.308 26.183-4.308 9.893 0 18.526 1.527 25.908 4.565 7.37 3.048 13.256 7.387 17.658 13.025 4.391 5.648 7.302 12.498 8.744 20.559 1.453 8.076 1.259 17.269-.563 27.599h-86.971c-1.227 8.076-.189 14.183 3.117 18.29 3.296 4.117 8.893 6.17 16.811 6.17 4.844 0 8.967-.795 12.389-2.374 3.422-1.586 6.855-4.398 10.293-8.442m-38.703-33.525h45.637c.768-6.645-.537-11.741-3.907-15.3-3.358-3.564-8.444-5.339-15.263-5.339-13.178 0-21.991 6.881-26.467 20.639M840.713 264.431h41.656c-2.296 7.239-5.565 13.768-9.799 19.596a63.17 63.17 0 0 1-15.32 14.942c-5.98 4.127-12.688 7.233-20.105 9.313-7.439 2.068-15.306 3.111-23.635 3.111-12.277 0-22.781-2.369-31.536-7.118-8.75-4.738-15.01-11.419-18.769-20.022-3.775-8.598-4.67-18.495-2.696-29.698 2.048-11.609 6.503-21.828 13.384-30.679 6.875-8.84 15.541-15.699 25.992-20.58 10.435-4.886 21.838-7.329 34.185-7.329 10.987 0 20.554 1.849 28.709 5.528 8.149 3.686 14.247 8.866 18.284 15.542 4.044 6.697 5.634 14.404 4.775 23.134h-41.876c.089-4.359-1.175-7.781-3.802-10.271-2.632-2.485-6.186-3.738-10.677-3.738-6.539 0-11.94 2.438-16.205 7.281-4.249 4.849-7.218 12.025-8.892 21.522-1.496 8.477-.938 14.963 1.668 19.475 2.611 4.507 7.05 6.761 13.305 6.761 5.254 0 9.608-1.38 13.094-4.139 3.485-2.754 6.234-6.965 8.26-12.631M493.967 194.854c11.903 0 22.123 2.451 30.668 7.348 8.533 4.891 14.631 11.804 18.284 20.732 3.648 8.93 4.496 19.08 2.485 30.441-1.448 8.213-4.322 15.879-8.604 23.018-4.296 7.14-9.781 13.336-16.452 18.616-6.681 5.271-14.11 9.324-22.281 12.151-8.176 2.817-16.736 4.233-25.687 4.233-12.325 0-22.86-2.453-31.6-7.34-8.745-4.896-14.994-11.761-18.732-20.569-3.749-8.834-4.628-18.864-2.643-30.109 1.505-8.54 4.464-16.468 8.887-23.776 4.428-7.307 9.935-13.535 16.516-18.716 6.592-5.165 14.057-9.124 22.392-11.894 8.345-2.753 17.263-4.135 26.767-4.135m-6.603 30.428c-4.333 0-8.034 1-11.141 3.001-3.096 2-5.691 5.112-7.771 9.35-2.08 4.228-3.67 9.44-4.765 15.637-3.228 18.316 1.474 27.478 14.099 27.478 12.341 0 20.139-9.161 23.365-27.478 1.538-8.734 1.48-15.179-.199-19.312-.953-2.748-2.67-4.88-5.149-6.401-2.479-1.506-5.285-2.275-8.439-2.275M247.925 171.899h80.584c13.44 0 23.154 3.335 29.162 10.026 6.012 6.684 8.154 14.958 6.412 24.835-1.464 8.275-5.291 15.378-11.504 21.301-4.127 3.949-9.708 7.065-16.736 9.361 9.635 2.39 16.315 6.528 20.032 12.372 3.707 5.849 4.786 13.204 3.228 22.055-1.274 7.207-4.102 13.688-8.477 19.433-4.359 5.76-9.766 10.309-16.189 13.656-3.975 2.101-9.688 3.611-17.137 4.56-9.919 1.264-16.469 1.896-19.633 1.896h-74.339l24.597-139.495zm33.869 55.036h18.532c6.644 0 11.472-1.179 14.488-3.517 3.017-2.343 4.912-5.723 5.697-10.15.721-4.112-.017-7.318-2.212-9.635-2.2-2.296-6.518-3.459-12.982-3.459H286.51l-4.716 26.761zm-9.64 54.649h21.88c7.382 0 12.82-1.316 16.321-3.948 3.485-2.644 5.628-6.182 6.412-10.625.722-4.117-.179-7.444-2.737-9.95-2.559-2.512-7.587-3.759-15.104-3.759H277.14l-4.986 28.282zM418.568 222.713h-45.72l-7.649 77.267.031.02c-.773 6.354 4.412 11.394 12.03 11.394s14.884-5.028 16.758-11.383l.042-.021 24.508-77.277zM425.318 195.262c-2.243 10.835-14.389 19.617-27.114 19.617-12.73 0-21.238-8.782-18.99-19.617 2.243-10.835 14.389-19.625 27.119-19.625s21.233 8.79 18.985 19.625M230.788 373.35c.163 3.06.858 5.56 2.09 7.472 2.338 3.574 6.466 5.375 12.373 5.375 2.643 0 5.054-.395 7.229-1.18 4.206-1.526 6.313-4.243 6.313-8.171 0-2.943-.896-5.044-2.675-6.297-1.806-1.231-4.633-2.29-8.481-3.195l-7.097-1.659c-4.639-1.084-7.913-2.273-9.846-3.569-3.327-2.253-4.985-5.633-4.985-10.118 0-4.86 1.632-8.846 4.906-11.962 3.27-3.117 7.902-4.676 13.899-4.676 5.507 0 10.192 1.369 14.047 4.106 3.858 2.738 5.791 7.107 5.791 13.115h-6.887c-.353-2.891-1.105-5.112-2.259-6.66-2.137-2.822-5.77-4.232-10.897-4.232-4.144 0-7.118.905-8.93 2.727-1.811 1.812-2.717 3.928-2.717 6.328 0 2.644 1.074 4.592 3.207 5.818 1.4.784 4.58 1.764 9.523 2.938l7.345 1.732c3.543.832 6.271 1.979 8.202 3.422 3.328 2.527 4.991 6.191 4.991 11.004 0 5.98-2.121 10.266-6.37 12.84-4.243 2.575-9.182 3.87-14.805 3.87-6.555 0-11.688-1.727-15.399-5.159-3.707-3.412-5.523-8.034-5.449-13.868h6.881zM296.515 366.938c1.516-.189 2.537-.832 3.048-1.911.29-.584.442-1.438.442-2.543 0-2.264-.801-3.917-2.406-4.938s-3.901-1.537-6.881-1.537c-3.454 0-5.902.947-7.35 2.821-.806 1.037-1.332 2.569-1.58 4.617h-6.181c.121-4.864 1.695-8.26 4.728-10.166 3.022-1.911 6.534-2.858 10.524-2.858 4.634 0 8.397.884 11.288 2.647 2.864 1.77 4.302 4.518 4.302 8.245v22.712c0 .686.137 1.232.421 1.654.284.41.879.621 1.785.621.295 0 .621-.021.989-.053.374-.043.769-.09 1.18-.169v4.896c-1.026.284-1.816.484-2.354.553s-1.279.11-2.211.11c-2.274 0-3.928-.811-4.965-2.432-.537-.863-.916-2.074-1.143-3.644-1.348 1.769-3.285 3.301-5.813 4.602-2.527 1.295-5.313 1.948-8.35 1.948-3.665 0-6.649-1.106-8.967-3.328-2.316-2.217-3.479-4.98-3.479-8.328 0-3.644 1.137-6.477 3.427-8.487 2.28-2.001 5.271-3.243 8.982-3.706l10.564-1.326zm-13.952 17.895c1.4 1.105 3.054 1.658 4.97 1.658 2.327 0 4.586-.543 6.771-1.627 3.681-1.785 5.518-4.712 5.518-8.782v-5.322c-.806.516-1.848.947-3.122 1.29a26.674 26.674 0 0 1-3.743.742l-4.001.516c-2.406.316-4.207.821-5.412 1.495-2.048 1.158-3.075 2.991-3.075 5.513-.002 1.911.693 3.411 2.094 4.517M318.627 340.371h6.696v11.003h6.297v5.413h-6.297v25.724c0 1.379.469 2.295 1.396 2.759.516.273 1.374.405 2.574.405.326 0 .669-.011 1.032-.026.374-.011.8-.053 1.295-.126v5.27c-.769.222-1.553.374-2.38.475-.815.1-1.706.152-2.669.152-3.085 0-5.186-.79-6.286-2.375-1.111-1.584-1.658-3.638-1.658-6.165v-26.092h-5.334v-5.413h5.334v-11.004zM338.238 336.738h6.733v7.503h-6.733v-7.503zm0 14.825h6.733v39.224h-6.733v-39.224zM358.918 378.425c.206 2.212.769 3.907 1.69 5.076 1.706 2.137 4.659 3.206 8.866 3.206 2.506 0 4.706-.532 6.617-1.601 1.896-1.068 2.854-2.723 2.854-4.954 0-1.69-.769-2.97-2.284-3.864-.975-.537-2.891-1.158-5.76-1.875l-5.35-1.326c-3.411-.832-5.934-1.759-7.555-2.791-2.896-1.789-4.339-4.27-4.339-7.434 0-3.732 1.364-6.75 4.081-9.056 2.727-2.306 6.392-3.459 10.987-3.459 6.018 0 10.355 1.743 13.015 5.229 1.664 2.206 2.475 4.58 2.427 7.134h-6.26c-.126-1.49-.663-2.838-1.61-4.06-1.559-1.737-4.265-2.601-8.103-2.601-2.569 0-4.502.484-5.823 1.432-1.316.953-1.979 2.211-1.979 3.78 0 1.706.868 3.085 2.601 4.102 1 .605 2.475 1.153 4.423 1.616l4.459 1.068c4.854 1.153 8.103 2.27 9.756 3.354 2.574 1.686 3.864 4.35 3.864 7.982 0 3.506-1.354 6.539-4.043 9.087-2.696 2.554-6.808 3.833-12.314 3.833-5.939 0-10.141-1.338-12.609-4.002-2.475-2.658-3.796-5.949-3.976-9.877h6.365zM395.756 339.345c1.554-2.259 4.528-3.386 8.945-3.386.416 0 .848.016 1.29.032.442.031.942.063 1.506.115v6.033c-.695-.042-1.195-.078-1.501-.089a25.217 25.217 0 0 0-.879-.017c-2.032 0-3.254.517-3.648 1.564-.396 1.037-.59 3.69-.59 7.965h6.618v5.224h-6.618v34h-6.555v-34h-5.486v-5.224h5.486v-6.181c.095-2.757.574-4.757 1.432-6.036M434.731 366.938c1.521-.189 2.538-.832 3.054-1.911.295-.584.442-1.438.442-2.543 0-2.264-.806-3.917-2.406-4.938-1.605-1.021-3.906-1.537-6.886-1.537-3.449 0-5.902.947-7.345 2.821-.811 1.037-1.337 2.569-1.585 4.617h-6.181c.126-4.864 1.7-8.26 4.723-10.166 3.027-1.911 6.539-2.858 10.535-2.858 4.633 0 8.392.884 11.282 2.647 2.869 1.77 4.301 4.518 4.301 8.245v22.712c0 .686.147 1.232.422 1.654.284.41.879.621 1.784.621.295 0 .632-.021.995-.053.369-.043.764-.09 1.18-.169v4.896c-1.032.284-1.816.484-2.358.553-.537.068-1.274.11-2.206.11-2.28 0-3.938-.811-4.97-2.432-.537-.863-.922-2.074-1.143-3.644-1.349 1.769-3.285 3.301-5.813 4.602-2.527 1.295-5.308 1.948-8.351 1.948-3.653 0-6.644-1.106-8.966-3.328-2.316-2.217-3.47-4.98-3.47-8.328 0-3.644 1.138-6.477 3.417-8.487 2.28-2.001 5.271-3.243 8.982-3.706l10.563-1.326zm-13.946 17.895c1.396 1.105 3.054 1.658 4.965 1.658 2.332 0 4.58-.543 6.771-1.627 3.686-1.785 5.522-4.712 5.522-8.782v-5.322c-.811.516-1.848.947-3.122 1.29a26.712 26.712 0 0 1-3.748.742l-4.001.516c-2.401.316-4.202.821-5.413 1.495-2.053 1.158-3.069 2.991-3.069 5.513-.001 1.911.695 3.411 2.095 4.517M481.563 353.47c2.779 2.164 4.454 5.876 5.022 11.156h-6.444c-.39-2.427-1.29-4.449-2.685-6.049-1.4-1.611-3.644-2.412-6.739-2.412-4.217 0-7.239 2.054-9.045 6.176-1.18 2.67-1.774 5.965-1.774 9.888 0 3.933.837 7.261 2.501 9.956 1.674 2.695 4.296 4.043 7.876 4.043 2.748 0 4.928-.832 6.534-2.512 1.605-1.679 2.716-3.964 3.332-6.87h6.444c-.742 5.223-2.58 9.045-5.522 11.456-2.948 2.422-6.713 3.633-11.299 3.633-5.154 0-9.261-1.885-12.33-5.654-3.069-3.765-4.596-8.466-4.596-14.109 0-6.918 1.679-12.305 5.038-16.158 3.359-3.849 7.64-5.775 12.841-5.775 4.443-.002 8.055 1.082 10.846 3.231M494.529 340.371h6.697v11.003h6.291v5.413h-6.291v25.724c0 1.379.469 2.295 1.396 2.759.521.273 1.374.405 2.574.405.321 0 .663-.011 1.037-.026a11.05 11.05 0 0 0 1.284-.126v5.27c-.758.222-1.547.374-2.369.475-.831.1-1.711.152-2.668.152-3.097 0-5.197-.79-6.298-2.375-1.101-1.584-1.653-3.638-1.653-6.165v-26.092h-5.338v-5.413h5.338v-11.004zM514.142 336.738h6.739v7.503h-6.739v-7.503zm0 14.825h6.739v39.224h-6.739v-39.224zM559.445 355.313c3.48 3.38 5.223 8.355 5.223 14.931 0 6.34-1.537 11.588-4.602 15.731-3.069 4.144-7.834 6.213-14.289 6.213-5.386 0-9.655-1.832-12.824-5.497-3.164-3.653-4.755-8.581-4.755-14.757 0-6.618 1.669-11.894 5.007-15.811 3.344-3.922 7.824-5.886 13.451-5.886 5.039 0 9.304 1.696 12.789 5.076m-4.111 26.198c1.61-3.328 2.41-7.023 2.41-11.088 0-3.67-.573-6.666-1.736-8.972-1.854-3.627-5.028-5.438-9.541-5.438-4 0-6.906 1.548-8.734 4.628-1.816 3.096-2.727 6.823-2.727 11.183 0 4.186.91 7.676 2.727 10.472 1.828 2.796 4.713 4.186 8.666 4.186 4.343-.002 7.318-1.655 8.935-4.971M572.803 351.374h6.296v5.597c1.858-2.301 3.839-3.954 5.923-4.964 2.085-1.001 4.402-1.512 6.955-1.512 5.597 0 9.371 1.953 11.335 5.859 1.079 2.127 1.616 5.182 1.616 9.156v25.276h-6.738v-24.834c0-2.406-.354-4.344-1.059-5.817-1.18-2.454-3.316-3.676-6.407-3.676-1.569 0-2.854.158-3.87.479-1.806.532-3.4 1.616-4.775 3.237-1.105 1.296-1.82 2.639-2.152 4.023-.332 1.39-.5 3.369-.5 5.949v20.638h-6.623v-39.411zM636.98 340.371h6.702v11.003h6.292v5.413h-6.292v25.724c0 1.379.464 2.295 1.396 2.759.516.273 1.373.405 2.579.405.315 0 .658-.011 1.026-.026.369-.011.795-.053 1.291-.126v5.27c-.77.222-1.554.374-2.375.475-.821.1-1.711.152-2.67.152-3.09 0-5.19-.79-6.291-2.375-1.105-1.584-1.658-3.638-1.658-6.165v-26.092h-5.334v-5.413h5.334v-11.004zM685.148 355.313c3.49 3.38 5.228 8.355 5.228 14.931 0 6.34-1.526 11.588-4.601 15.731-3.07 4.144-7.834 6.213-14.289 6.213-5.381 0-9.656-1.832-12.825-5.497-3.169-3.653-4.755-8.581-4.755-14.757 0-6.618 1.675-11.894 5.013-15.811 3.333-3.922 7.818-5.886 13.446-5.886 5.039 0 9.309 1.696 12.783 5.076m-4.107 26.198c1.611-3.328 2.417-7.023 2.417-11.088 0-3.67-.584-6.666-1.747-8.972-1.844-3.627-5.018-5.438-9.529-5.438-4.002 0-6.914 1.548-8.734 4.628-1.816 3.096-2.729 6.823-2.729 11.183 0 4.186.912 7.676 2.729 10.472 1.82 2.796 4.706 4.186 8.66 4.186 4.343-.002 7.323-1.655 8.933-4.971M720.66 336.738h21.611c7.328 0 13.025 2.632 17.068 7.907 3.607 4.76 5.407 10.852 5.407 18.285 0 5.744-1.058 10.936-3.196 15.568-3.754 8.191-10.197 12.293-19.354 12.293H720.66v-54.053zm20.174 47.794c2.428 0 4.418-.252 5.977-.769 2.779-.958 5.054-2.801 6.833-5.522 1.417-2.175 2.438-4.976 3.06-8.387.357-2.043.537-3.928.537-5.665 0-6.708-1.301-11.899-3.896-15.605-2.606-3.706-6.803-5.56-12.578-5.56h-12.703v41.508h12.77zM798.221 352.464c2.611 1.312 4.602 3.007 5.96 5.097 1.321 1.985 2.195 4.307 2.638 6.955.385 1.816.584 4.712.584 8.687h-28.666c.121 4.012 1.058 7.224 2.806 9.646 1.759 2.422 4.47 3.633 8.145 3.633 3.438 0 6.176-1.138 8.219-3.433 1.138-1.327 1.953-2.875 2.433-4.623h6.512c-.174 1.448-.747 3.064-1.716 4.844-.964 1.774-2.048 3.223-3.233 4.359-2 1.969-4.469 3.285-7.423 3.97-1.579.396-3.364.59-5.359.59-4.88 0-9.014-1.785-12.399-5.354-3.391-3.564-5.085-8.561-5.085-14.999 0-6.329 1.706-11.467 5.122-15.416 3.406-3.948 7.877-5.917 13.384-5.917 2.777-.002 5.472.65 8.078 1.961m2.375 15.474c-.27-2.864-.891-5.165-1.864-6.886-1.8-3.186-4.807-4.781-9.013-4.781-3.018 0-5.545 1.096-7.587 3.296-2.048 2.201-3.128 4.985-3.254 8.371h21.718zM815.789 351.374h6.297v5.597c1.859-2.301 3.838-3.954 5.924-4.964 2.09-1.001 4.4-1.512 6.949-1.512 5.597 0 9.377 1.953 11.34 5.859 1.08 2.127 1.622 5.182 1.622 9.156v25.276h-6.739v-24.834c0-2.406-.353-4.344-1.068-5.817-1.174-2.454-3.307-3.676-6.402-3.676-1.568 0-2.858.158-3.864.479-1.816.532-3.406 1.616-4.78 3.237-1.105 1.296-1.822 2.639-2.153 4.023-.331 1.39-.501 3.369-.501 5.949v20.638h-6.623v-39.411zM859.029 340.371h6.703v11.003h6.291v5.413h-6.291v25.724c0 1.379.463 2.295 1.395 2.759.516.273 1.374.405 2.569.405.326 0 .669-.011 1.037-.026.368-.011.8-.053 1.29-.126v5.27c-.764.222-1.553.374-2.375.475-.82.1-1.711.152-2.669.152-3.085 0-5.19-.79-6.292-2.375-1.105-1.584-1.658-3.638-1.658-6.165v-26.092h-5.338v-5.413h5.338v-11.004zM878.652 336.738h6.732v7.503h-6.732v-7.503zm0 14.825h6.732v39.224h-6.732v-39.224zM899.326 378.425c.195 2.212.764 3.907 1.69 5.076 1.706 2.137 4.665 3.206 8.866 3.206 2.506 0 4.701-.532 6.607-1.601s2.858-2.723 2.858-4.954c0-1.69-.763-2.97-2.29-3.864-.969-.537-2.885-1.158-5.754-1.875l-5.35-1.326c-3.412-.832-5.934-1.759-7.555-2.791-2.885-1.789-4.334-4.27-4.334-7.434 0-3.732 1.359-6.75 4.081-9.056s6.386-3.459 10.982-3.459c6.022 0 10.356 1.743 13.015 5.229 1.674 2.206 2.475 4.58 2.428 7.134h-6.256c-.126-1.49-.668-2.838-1.615-4.06-1.559-1.737-4.26-2.601-8.104-2.601-2.563 0-4.501.484-5.817 1.432-1.321.953-1.979 2.211-1.979 3.78 0 1.706.863 3.085 2.602 4.102.994.605 2.474 1.153 4.416 1.616l4.465 1.068c4.85 1.153 8.104 2.27 9.756 3.354 2.569 1.686 3.859 4.35 3.859 7.982 0 3.506-1.348 6.539-4.043 9.087-2.691 2.554-6.797 3.833-12.314 3.833-5.934 0-10.141-1.338-12.609-4.002-2.47-2.658-3.797-5.949-3.976-9.877h6.371zM934.4 340.371h6.697v11.003h6.291v5.413h-6.291v25.724c0 1.379.463 2.295 1.396 2.759.516.273 1.374.405 2.574.405.327 0 .663-.011 1.032-.026.368-.011.805-.053 1.289-.126v5.27a15.05 15.05 0 0 1-2.374.475c-.821.1-1.711.152-2.669.152-3.086 0-5.191-.79-6.291-2.375-1.105-1.584-1.654-3.638-1.654-6.165v-26.092h-5.338v-5.413h5.338v-11.004zM957.945 378.425c.205 2.212.769 3.907 1.689 5.076 1.701 2.137 4.665 3.206 8.867 3.206 2.511 0 4.706-.532 6.611-1.601 1.906-1.068 2.859-2.723 2.859-4.954 0-1.69-.769-2.97-2.29-3.864-.969-.537-2.891-1.158-5.755-1.875l-5.349-1.326c-3.411-.832-5.938-1.759-7.556-2.791-2.895-1.789-4.338-4.27-4.338-7.434 0-3.732 1.358-6.75 4.08-9.056 2.728-2.306 6.387-3.459 10.982-3.459 6.023 0 10.361 1.743 13.02 5.229 1.664 2.206 2.475 4.58 2.428 7.134h-6.26c-.127-1.49-.664-2.838-1.616-4.06-1.559-1.737-4.259-2.601-8.098-2.601-2.569 0-4.507.484-5.823 1.432-1.32.953-1.979 2.211-1.979 3.78 0 1.706.868 3.085 2.605 4.102.995.605 2.469 1.153 4.412 1.616l4.465 1.068c4.854 1.153 8.102 2.27 9.756 3.354 2.574 1.686 3.863 4.35 3.863 7.982 0 3.506-1.348 6.539-4.048 9.087-2.69 2.554-6.802 3.833-12.31 3.833-5.943 0-10.145-1.338-12.614-4.002-2.47-2.658-3.79-5.949-3.97-9.877h6.369z"/><path fill="#E51A92" d="M271.706 20.304c-30.546 22.686-61.614 57.621-85.579 111.47L178.24 28.678h-66.032s-29.841 73.557-63.151 141.576C39.206 190.44 26.25 203.075.999 218.649c36.148-1.085 69.991 2.737 100.338-54.075C112.619 143.438 134 95.596 134 95.596l10.766 115.466h67.953c.743-2.543 18.195-127.001 95.22-193.917C314.42 11.506 321.38 6.347 328.73 1.64l-.105-.01c-28.857-.351-51.19 14.675-56.919 18.674"/></svg>